<svg viewBox="0 0 330 200" xmlns="http://www.w3.org/2000/svg"><g><g><g><g><g><line x1="52.6875" y1="177" x2="47.6875" y2="177" style="visibility: inherit;" fill="rgb(0, 0, 0)" stroke="rgb(204, 204, 204)" stroke-width="1px"></line><line x1="52.6875" y1="164.35714285714286" x2="47.6875" y2="164.35714285714286" style="visibility: inherit;" fill="rgb(0, 0, 0)" stroke="rgb(204, 204, 204)" stroke-width="1px"></line><line x1="52.6875" y1="151.7142857142857" x2="47.6875" y2="151.7142857142857" style="visibility: inherit;" fill="rgb(0, 0, 0)" stroke="rgb(204, 204, 204)" stroke-width="1px"></line><line x1="52.6875" y1="139.07142857142856" x2="47.6875" y2="139.07142857142856" style="visibility: inherit;" fill="rgb(0, 0, 0)" stroke="rgb(204, 204, 204)" stroke-width="1px"></line><line x1="52.6875" y1="126.42857142857142" x2="47.6875" y2="126.42857142857142" style="visibility: inherit;" fill="rgb(0, 0, 0)" stroke="rgb(204, 204, 204)" stroke-width="1px"></line><line x1="52.6875" y1="113.78571428571428" x2="47.6875" y2="113.78571428571428" style="visibility: inherit;" fill="rgb(0, 0, 0)" stroke="rgb(204, 204, 204)" stroke-width="1px"></line><line x1="52.6875" y1="101.14285714285714" x2="47.6875" y2="101.14285714285714" style="visibility: inherit;" fill="rgb(0, 0, 0)" stroke="rgb(204, 204, 204)" stroke-width="1px"></line><line x1="52.6875" y1="88.5" x2="47.6875" y2="88.5" style="visibility: inherit;" fill="rgb(0, 0, 0)" stroke="rgb(204, 204, 204)" stroke-width="1px"></line><line x1="52.6875" y1="75.85714285714285" x2="47.6875" y2="75.85714285714285" style="visibility: inherit;" fill="rgb(0, 0, 0)" stroke="rgb(204, 204, 204)" stroke-width="1px"></line><line x1="52.6875" y1="63.21428571428572" x2="47.6875" y2="63.21428571428572" style="visibility: inherit;" fill="rgb(0, 0, 0)" stroke="rgb(204, 204, 204)" stroke-width="1px"></line><line x1="52.6875" y1="50.57142857142857" x2="47.6875" y2="50.57142857142857" style="visibility: inherit;" fill="rgb(0, 0, 0)" stroke="rgb(204, 204, 204)" stroke-width="1px"></line><line x1="52.6875" y1="37.92857142857141" x2="47.6875" y2="37.92857142857141" style="visibility: inherit;" fill="rgb(0, 0, 0)" stroke="rgb(204, 204, 204)" stroke-width="1px"></line><line x1="52.6875" y1="25.285714285714274" x2="47.6875" y2="25.285714285714274" style="visibility: inherit;" fill="rgb(0, 0, 0)" stroke="rgb(204, 204, 204)" stroke-width="1px"></line><line x1="52.6875" y1="12.642857142857117" x2="47.6875" y2="12.642857142857117" style="visibility: inherit;" fill="rgb(0, 0, 0)" stroke="rgb(204, 204, 204)" stroke-width="1px"></line><line x1="52.6875" y1="0" x2="47.6875" y2="0" style="visibility: inherit;" fill="rgb(0, 0, 0)" stroke="rgb(204, 204, 204)" stroke-width="1px"></line></g><g transform="translate(42.6875, 0)"><text x="0" y="177" dx="0em" dy="0.3em" style="text-anchor: end; visibility: hidden; font-family: Roboto, sans-serif; font-size: 12px; font-weight: 200;" fill="rgb(50, 49, 63)" stroke="none" stroke-width="1px">-0.2</text><text x="0" y="164.35714285714286" dx="0em" dy="0.3em" style="text-anchor: end; visibility: inherit; font-family: Roboto, sans-serif; font-size: 12px; font-weight: 200;" fill="rgb(50, 49, 63)" stroke="none" stroke-width="1px">-0.1</text><text x="0" y="151.7142857142857" dx="0em" dy="0.3em" style="text-anchor: end; visibility: hidden; font-family: Roboto, sans-serif; font-size: 12px; font-weight: 200;" fill="rgb(50, 49, 63)" stroke="none" stroke-width="1px">0</text><text x="0" y="139.07142857142856" dx="0em" dy="0.3em" style="text-anchor: end; visibility: inherit; font-family: Roboto, sans-serif; font-size: 12px; font-weight: 200;" fill="rgb(50, 49, 63)" stroke="none" stroke-width="1px">0.1</text><text x="0" y="126.42857142857142" dx="0em" dy="0.3em" style="text-anchor: end; visibility: hidden; font-family: Roboto, sans-serif; font-size: 12px; font-weight: 200;" fill="rgb(50, 49, 63)" stroke="none" stroke-width="1px">0.2</text><text x="0" y="113.78571428571428" dx="0em" dy="0.3em" style="text-anchor: end; visibility: inherit; font-family: Roboto, sans-serif; font-size: 12px; font-weight: 200;" fill="rgb(50, 49, 63)" stroke="none" stroke-width="1px">0.3</text><text x="0" y="101.14285714285714" dx="0em" dy="0.3em" style="text-anchor: end; visibility: hidden; font-family: Roboto, sans-serif; font-size: 12px; font-weight: 200;" fill="rgb(50, 49, 63)" stroke="none" stroke-width="1px">0.4</text><text x="0" y="88.5" dx="0em" dy="0.3em" style="text-anchor: end; visibility: inherit; font-family: Roboto, sans-serif; font-size: 12px; font-weight: 200;" fill="rgb(50, 49, 63)" stroke="none" stroke-width="1px">0.5</text><text x="0" y="75.85714285714285" dx="0em" dy="0.3em" style="text-anchor: end; visibility: hidden; font-family: Roboto, sans-serif; font-size: 12px; font-weight: 200;" fill="rgb(50, 49, 63)" stroke="none" stroke-width="1px">0.6</text><text x="0" y="63.21428571428572" dx="0em" dy="0.3em" style="text-anchor: end; visibility: inherit; font-family: Roboto, sans-serif; font-size: 12px; font-weight: 200;" fill="rgb(50, 49, 63)" stroke="none" stroke-width="1px">0.7</text><text x="0" y="50.57142857142857" dx="0em" dy="0.3em" style="text-anchor: end; visibility: hidden; font-family: Roboto, sans-serif; font-size: 12px; font-weight: 200;" fill="rgb(50, 49, 63)" stroke="none" stroke-width="1px">0.8</text><text x="0" y="37.92857142857141" dx="0em" dy="0.3em" style="text-anchor: end; visibility: inherit; font-family: Roboto, sans-serif; font-size: 12px; font-weight: 200;" fill="rgb(50, 49, 63)" stroke="none" stroke-width="1px">0.9</text><text x="0" y="25.285714285714274" dx="0em" dy="0.3em" style="text-anchor: end; visibility: hidden; font-family: Roboto, sans-serif; font-size: 12px; font-weight: 200;" fill="rgb(50, 49, 63)" stroke="none" stroke-width="1px">1</text><text x="0" y="12.642857142857117" dx="0em" dy="0.3em" style="text-anchor: end; visibility: inherit; font-family: Roboto, sans-serif; font-size: 12px; font-weight: 200;" fill="rgb(50, 49, 63)" stroke="none" stroke-width="1px">1.1</text><text x="0" y="0" dx="0em" dy="0.3em" style="text-anchor: end; visibility: hidden; font-family: Roboto, sans-serif; font-size: 12px; font-weight: 200;" fill="rgb(50, 49, 63)" stroke="none" stroke-width="1px">1.2</text></g><line x1="52.6875" y1="0" x2="52.6875" y2="177" fill="rgb(0, 0, 0)" stroke="rgb(204, 204, 204)" stroke-width="1px"></line></g></g><g transform="translate(52, 0)" clip-path="url(#clip_0)"><clipPath id="clip_0"><rect width="277" height="177"></rect></clipPath><g><g><g><line x1="0" y1="0" x2="0" y2="177" fill="rgb(0, 0, 0)" stroke="rgb(60, 60, 60)" stroke-width="1px" opacity="0.25"></line><line x1="25.210227272727273" y1="0" x2="25.210227272727273" y2="177" fill="rgb(0, 0, 0)" stroke="rgb(60, 60, 60)" stroke-width="1px" opacity="0.25"></line><line x1="50.42045454545455" y1="0" x2="50.42045454545455" y2="177" fill="rgb(0, 0, 0)" stroke="rgb(60, 60, 60)" stroke-width="1px" opacity="0.25"></line><line x1="75.63068181818181" y1="0" x2="75.63068181818181" y2="177" fill="rgb(0, 0, 0)" stroke="rgb(60, 60, 60)" stroke-width="1px" opacity="0.25"></line><line x1="100.8409090909091" y1="0" x2="100.8409090909091" y2="177" fill="rgb(0, 0, 0)" stroke="rgb(60, 60, 60)" stroke-width="1px" opacity="0.25"></line><line x1="126.05113636363636" y1="0" x2="126.05113636363636" y2="177" fill="rgb(0, 0, 0)" stroke="rgb(60, 60, 60)" stroke-width="1px" opacity="0.25"></line><line x1="151.26136363636363" y1="0" x2="151.26136363636363" y2="177" fill="rgb(0, 0, 0)" stroke="rgb(60, 60, 60)" stroke-width="1px" opacity="0.25"></line><line x1="176.4715909090909" y1="0" x2="176.4715909090909" y2="177" fill="rgb(0, 0, 0)" stroke="rgb(60, 60, 60)" stroke-width="1px" opacity="0.25"></line><line x1="201.6818181818182" y1="0" x2="201.6818181818182" y2="177" fill="rgb(0, 0, 0)" stroke="rgb(60, 60, 60)" stroke-width="1px" opacity="0.25"></line><line x1="226.89204545454547" y1="0" x2="226.89204545454547" y2="177" fill="rgb(0, 0, 0)" stroke="rgb(60, 60, 60)" stroke-width="1px" opacity="0.25"></line><line x1="252.10227272727272" y1="0" x2="252.10227272727272" y2="177" fill="rgb(0, 0, 0)" stroke="rgb(60, 60, 60)" stroke-width="1px" opacity="0.25"></line><line x1="277.3125" y1="0" x2="277.3125" y2="177" fill="rgb(0, 0, 0)" stroke="rgb(60, 60, 60)" stroke-width="1px" opacity="0.25"></line></g><g><line x1="0" y1="177" x2="277.3125" y2="177" fill="rgb(0, 0, 0)" stroke="rgb(60, 60, 60)" stroke-width="1px" opacity="0.25"></line><line x1="0" y1="164.35714285714286" x2="277.3125" y2="164.35714285714286" fill="rgb(0, 0, 0)" stroke="rgb(60, 60, 60)" stroke-width="1px" opacity="0.25"></line><line x1="0" y1="151.7142857142857" x2="277.3125" y2="151.7142857142857" fill="rgb(0, 0, 0)" stroke="rgb(60, 60, 60)" stroke-width="1px" opacity="0.25"></line><line x1="0" y1="139.07142857142856" x2="277.3125" y2="139.07142857142856" fill="rgb(0, 0, 0)" stroke="rgb(60, 60, 60)" stroke-width="1px" opacity="0.25"></line><line x1="0" y1="126.42857142857142" x2="277.3125" y2="126.42857142857142" fill="rgb(0, 0, 0)" stroke="rgb(60, 60, 60)" stroke-width="1px" opacity="0.25"></line><line x1="0" y1="113.78571428571428" x2="277.3125" y2="113.78571428571428" fill="rgb(0, 0, 0)" stroke="rgb(60, 60, 60)" stroke-width="1px" opacity="0.25"></line><line x1="0" y1="101.14285714285714" x2="277.3125" y2="101.14285714285714" fill="rgb(0, 0, 0)" stroke="rgb(60, 60, 60)" stroke-width="1px" opacity="0.25"></line><line x1="0" y1="88.5" x2="277.3125" y2="88.5" fill="rgb(0, 0, 0)" stroke="rgb(60, 60, 60)" stroke-width="1px" opacity="0.25"></line><line x1="0" y1="75.85714285714285" x2="277.3125" y2="75.85714285714285" fill="rgb(0, 0, 0)" stroke="rgb(60, 60, 60)" stroke-width="1px" opacity="0.25"></line><line x1="0" y1="63.21428571428572" x2="277.3125" y2="63.21428571428572" fill="rgb(0, 0, 0)" stroke="rgb(60, 60, 60)" stroke-width="1px" opacity="0.25"></line><line x1="0" y1="50.57142857142857" x2="277.3125" y2="50.57142857142857" fill="rgb(0, 0, 0)" stroke="rgb(60, 60, 60)" stroke-width="1px" opacity="0.25"></line><line x1="0" y1="37.92857142857141" x2="277.3125" y2="37.92857142857141" fill="rgb(0, 0, 0)" stroke="rgb(60, 60, 60)" stroke-width="1px" opacity="0.25"></line><line x1="0" y1="25.285714285714274" x2="277.3125" y2="25.285714285714274" fill="rgb(0, 0, 0)" stroke="rgb(60, 60, 60)" stroke-width="1px" opacity="0.25"></line><line x1="0" y1="12.642857142857117" x2="277.3125" y2="12.642857142857117" fill="rgb(0, 0, 0)" stroke="rgb(60, 60, 60)" stroke-width="1px" opacity="0.25"></line><line x1="0" y1="0" x2="277.3125" y2="0" fill="rgb(0, 0, 0)" stroke="rgb(60, 60, 60)" stroke-width="1px" opacity="0.25"></line></g></g></g><g><g><line x1="0" y1="151.7142857142857" x2="277.3125" y2="151.7142857142857" fill="rgb(0, 0, 0)" stroke="rgb(153, 153, 153)" stroke-width="1.5px"></line></g></g><g><g><line x1="25.210227272727273" y1="0" x2="25.210227272727273" y2="177" fill="rgb(0, 0, 0)" stroke="rgb(153, 153, 153)" stroke-width="1.5px"></line></g></g><g><g><g><g><g><path stroke="rgb(255, 112, 67)" stroke-width="2px" d="M27.579988636363634,-20.155248307287497L27.781670454545452,9.834035641191122L27.882511363636365,1.9383637447540631L28.38671590909091,-52.41583244912597L29.1178125,-15.235492531966852L29.193443181818182,1.9520905688863253L29.42033522727273,3.30259953026802L29.69764772727273,6.166449747964628L29.823698863636363,-1.2468036930799138L31.10689943181818,-13.698388762687026L31.485052840909088,7.195638539824923L31.636314204545457,0.7923205795330953L31.76236534090909,30.035792238914013L31.938836931818184,6.174387362268052L32.090098295454546,9.668834760499694L32.569092613636364,33.851275906739616L32.97245625,37.87927736471441L33.02287670454545,31.217061870912925L33.22455852272727,23.002232254160422L33.527081249999995,6.272091388904832L33.75397329545455,18.283764272789227L33.95565511363637,-11.096280042388937L34.35901875,5.910139836066415L34.45985965909091,33.21355200602332L35.81869090909091,1.5478015473731057L35.843901136363634,31.865418898663687L36.272475,48.09797139006683L36.34810568181818,52.162034031236445L36.423736363636365,57.32644058776456L36.80188977272727,70.78229746074543L36.877520454545454,33.557235813923675L36.90273068181818,56.69023055484966L37.154832954545455,52.13736784256459L37.633827272727274,44.3864741747997L38.163242045454545,7.272380490866013L38.591815909090904,18.403835414414644L38.71786704545454,24.950302576310424L39.398543181818184,46.881436929573184L39.650645454545455,32.300398780354676L39.80190681818182,33.270399001172336L39.97837840909091,41.18935776342568L40.00358863636363,16.838834588934184L40.381742045454544,21.904206447646143L40.83300511363636,24.287251343891736L40.88342556818182,49.96859801276016L41.18594829545455,27.52494847369062L41.36241988636364,38.98331563570236L41.38763011363636,56.01997255792666L41.438050568181815,37.07672293234895L41.51368125,36.65447689358097L41.56410170454545,28.952756378349036L41.86662443181819,8.423303506465615L42.11872670454545,15.63456372464073L42.54730056818182,51.05748896965874L43.202766477272725,52.929385512374516L43.30360738636364,55.918918809304806L43.40444829545454,42.50873363078247L43.60613011363637,50.15317307235879L43.8330221590909,69.54173330090266L43.933863068181815,43.49962363358287L44.16075511363636,67.13102181129084L44.261596022727275,66.86766866582374L44.488488068181816,26.10573236785973L44.58932897727273,37.833455460836625L44.63974943181818,33.20788687322742L44.69016988636364,36.887305471709325L44.86664147727273,29.767021939914294L44.992692613636365,37.37628975257924L45.04311306818182,16.331807374289674L45.16916420454545,16.96893130671271L45.219584659090906,15.491212651149741L45.32042556818182,36.13946144879836L45.42126647727273,51.056461286295175L45.570006818181824,60.89862938797825L45.59521704545455,67.92017383280353L46.17505227272727,61.678296845572916L46.275893181818184,66.92849931801423L47.107830681818186,50.25462584137529L47.284302272727274,72.91801271530328L47.43556363636364,53.92010718741278L47.788506818181816,53.818535548540375L47.88934772727273,59.654334517431856L48.065819318181816,53.40029283973049L48.116239772727276,44.406243069075934L48.26750113636364,65.21294837353261L48.31792159090909,21.660426552043134L48.67086477272728,26.63515030866181L48.696075,-1.6025014735313563L48.94817727272728,24.360608566493934L49.023807954545454,18.367908396111062L49.2507,51.763250620407966L49.35154090909091,51.32615913822837L49.45238181818182,60.277108956338765L49.67927386363637,70.22211418345421L49.70448409090909,75.73209036125793L49.855745454545456,59.64514295470576L49.88095568181818,70.61014424859032L50.007006818181814,67.50850199434572L50.4607909090909,65.62711892759279L50.53390056818182,44.47643901250049L50.76079261363636,23.240911028546112L51.51709943181819,53.558493725941354L51.844832386363635,59.66402615712373L51.99609375,73.80687701467448L52.07172443181818,56.0798985637481L52.122144886363635,53.21185555577945L52.22298579545455,51.183620192020875L52.37424715909091,50.343848293327255L52.50029829545455,61.90134014888499L52.75240056818181,31.693415310916926L52.90366193181818,61.83321511307474L53.02971306818181,67.52666672375696L53.28181534090909,66.105395802556L54.34064488636364,41.95565842057038L54.44148579545454,47.910595353376316L54.46669602272728,50.289753180871706L54.49190625,28.949154700118477L54.94569034090909,49.5524745734204L55.27342329545454,38.701599458810975L55.59863522727272,51.839091966807935L56.25410113636364,68.14818102222004L56.55662386363636,59.06471641975574L56.83393636363636,64.68982782774782L56.90956704545455,80.37044952230396L56.98519772727273,80.64332025171788L57.489402272727276,68.64709321639393L57.64066363636364,70.59716663690138L57.81713522727273,46.23066812031787L57.96839659090909,69.17845733924699L58.37176022727272,64.32838249525679L58.44739090909091,46.570414293024164L58.724703409090914,29.17548346498119L58.80033409090909,12.867956113687185L58.87596477272727,26.81287199625774L58.901175,15.724408167247963L60.1112659090909,25.381679146929724L60.18689659090909,12.916982799437143L60.26252727272727,17.11769659925061L60.287737500000006,48.39136768686764L60.83984147727273,52.071804313281554L61.14236420454546,57.28259052880625L61.19278465909091,58.05881875782026L61.39446647727272,55.787937227488975L61.495307386363635,51.68765345345311L62.12556306818181,46.323423812996126L62.15077329545455,47.99150556253326L62.42808579545455,62.72120088976498L62.62976761363636,54.46357534825218L62.73060852272727,27.351732027101395L62.781028977272726,54.687196798067006L63.58775625,44.780878696150864L63.68859715909091,61.35990505500784L64.31885284090909,58.60754183666114L64.72221647727272,80.0212499415478L64.74742670454545,88.66195416628638L65.12558011363636,76.30553162204812L65.22642102272727,84.20082575146908L65.6297846590909,60.91070342953878L65.65499488636364,74.36405759221411L65.98020681818183,79.29127277319999L66.20709886363636,82.49616341735431L66.33315,68.90011472924996L66.45920113636363,52.89502638746256L66.53483181818181,62.65659626482442L66.66088295454546,63.83750312763419L66.73651363636364,72.99963227396842L67.03903636363636,92.94575058851876L67.24071818181818,91.08692956995935L67.41718977272727,103.02955608642422L67.59366136363636,89.40461635209344L67.8205534090909,89.70732776209334L67.92139431818181,79.56942936624147L67.97181477272727,47.181376690451906L68.02223522727273,54.9430567880607L68.09786590909091,39.585614858533276L68.2743375,67.16180930727359L68.50122954545455,43.60846986034549L68.75333181818182,49.073985334475765L68.85417272727273,59.228927909789746L68.90459318181819,48.94651082721842L68.98022386363637,76.41931626709227L69.106275,68.74700422166373L69.18190568181818,77.55784654068103L69.20711590909092,81.43536030576063L69.71132045454546,82.03443507064925L69.93821249999999,76.01167418783632L70.08947386363637,71.30625012566367L70.26594545454546,74.6322961273773L70.29115568181818,63.597048828949944L70.51804772727272,44.47127572550542L70.69451931818182,38.40287001727239L71.22141306818182,50.55616223010634L71.32225397727272,53.15167162278082L71.57435625,66.93453882610072L71.6751971590909,62.12940572783512L71.90208920454545,53.11671177114429L72.2298221590909,34.715697190555225L72.3054528409091,57.71871670908129L72.45671420454545,76.59970092925408L72.50713465909091,67.87314250219792L73.36428238636363,79.41928438377595L73.51554375,68.9837641990402L73.94411761363635,82.98856079692099L74.19621988636364,86.51355916159595L74.27185056818182,81.2018881910875L74.32227102272728,76.46892756663766L74.77605511363636,73.54091080691222L75.12899829545455,91.4867478495501L75.17941875,101.0366886002646L75.63320284090908,70.47125217573799L75.73404375,85.92620099340056L75.93320454545454,100.25590892457895L76.3617784090909,70.35449196506187L76.51303977272727,85.5707230612725L77.11808522727273,93.41092648604622L77.44581818181818,83.21215209406935L77.52144886363637,88.52301202271349L77.54665909090909,70.26298332416818L77.59707954545453,44.23052330138566L77.64750000000001,54.79989169602391L77.74834090909091,31.646134647261743L77.84918181818182,55.363645249411164L78.0256534090909,76.29244053675728L78.40380681818182,87.08791525721378L79.26095454545454,85.61122944433245L79.36179545454546,59.983920984056375L79.53826704545455,77.6705064610164L79.7651590909091,76.83447501019619L80.06768181818181,58.748642933957825L80.3197840909091,79.65306898595192L80.37020454545454,64.85608982400304L80.420625,54.48507721040372L80.54667613636364,47.462817150947096L80.62230681818181,22.170824366822988L80.82398863636364,11.898947408038016L80.92230852272728,27.25611205030027L81.42651306818182,36.91269790606823L81.55256420454545,62.102688760706265L81.57777443181817,70.30085590550213L81.62819488636364,62.21975970053872L81.70382556818183,62.0911788621029L81.80466647727272,83.57883473421307L81.82987670454546,90.41280978006652L82.00634829545454,85.29887933354522L82.08197897727273,57.94325183097517L82.20803011363637,67.32717827375274L82.68702443181817,59.74860199511798L82.93912670454546,42.82930662422969L83.09038806818182,52.67206200474259L83.24164943181817,58.136431921887656L83.3424903409091,69.39298060328429L83.64501306818183,77.78081585299513L83.67022329545455,84.12146051723686L84.30047897727273,103.56796195932155L84.52737102272728,96.18487627488841L85.40972897727272,79.13602282854256L85.43493920454546,57.249472856322676L85.4853596590909,60.24031878527558L85.83830284090908,5.879955304619154L86.59208863636364,18.993808863051907L86.79377045454545,36.10758164460465L86.97024204545454,66.13189511686139L87.0206625,81.59437105513217L87.07108295454546,63.95721439480457L87.19713409090909,70.31904567626349L87.82738977272727,75.9231071927127L87.85260000000001,66.0171791622114L88.10470227272727,71.25594949520914L88.15512272727274,65.25063340883682L88.28117386363637,67.96085129733477L88.63411704545454,56.60487837611704L88.78537840909091,57.659911068110375L89.01227045454546,68.6253390093191L89.39042386363636,58.43719240986283L89.49126477272726,61.31854194125178L89.54168522727274,66.02300047197043L89.86941818181819,68.9095243243036L90.1719409090909,61.80160222558976L90.47446363636364,70.13837413682393L90.72656590909091,68.67310793472781L90.87782727272727,82.39656088770644L91.30388011363637,88.29712149428343L91.45514147727272,70.15385119105161L91.48035170454546,77.38182485435134L91.83329488636365,86.3713677528382L91.98455625,83.44392329812189L92.11060738636364,99.74199886025787L92.69044261363636,85.03642217798964L92.86691420454545,76.18051578605817L92.9929653409091,79.2241508773672L93.32069829545455,92.77753909044563L93.49716988636364,87.46963508239106L93.87532329545455,96.08701705010876L94.17784602272728,91.3502746322368L94.25347670454545,93.77981450123703L94.60641988636362,73.84026538452233L94.63163011363636,85.17858982583887L94.68205056818182,63.87190659685394L95.4887778409091,62.04234333285623L95.51398806818183,65.93664374363637L95.53919829545455,70.53865435539441L95.71566988636363,82.17824088482458L95.99298238636364,85.08287497642958L96.36861477272728,86.95573268275879L96.49466590909091,90.99238527978315L97.57870568181818,81.39114962318452L97.80559772727273,66.28107809347115L98.03248977272726,77.2964808185232L98.18375113636364,70.77369695625414L98.28459204545454,87.4637993557555L98.71316590909092,86.89043884177818L98.76358636363636,74.68560537346661L98.78879659090909,63.967928215894716L99.97367727272727,64.71578304727036L100.17535909090908,60.20070752187636L100.75519431818182,54.614261229369006L100.98208636363637,48.93181519480524L101.08292727272728,69.53861839039314L101.18124715909092,81.45405006684771L101.20645738636364,69.2806285568181L101.48376988636365,66.80578196420606L101.55940056818181,82.07833774483234L101.76108238636364,78.63309516325354L101.83671306818182,78.81640196247042L102.44175852272727,66.38379329512969L102.54259943181818,61.815859544697126L102.59301988636365,62.63422762998165L103.29890625,77.91572992081093L103.87874147727273,79.94926098118727L104.25689488636363,93.47124798801416L104.45857670454545,89.70735489806796L104.58462784090909,65.66266269715247L104.71067897727272,71.75469090821174L104.81151988636363,57.578260438759635L104.8619403409091,59.280229793262194L105.26530397727272,58.04770663669296L105.71908806818182,66.11384406688734L105.74429829545456,72.02808546425656L105.92076988636363,77.8610024791209L105.99640056818183,76.93798145557078L106.59892500000001,80.96509093415092L106.67455568181818,67.60231851560681L106.85102727272728,66.26557714697265L106.92665795454546,65.56670551359295L106.95186818181818,67.2914635300785L107.00228863636363,58.3246803362118L107.02749886363637,84.06116368389662L107.65775454545454,95.97446314957803L107.88464659090909,94.24465949643465L108.48969204545455,104.18366538214825L108.69137386363636,81.47282768581339L109.04431704545453,84.08258907544459L109.06952727272727,70.55988866587613L109.49810113636364,83.42912302485615L110.22919772727273,94.10152592871918L110.27961818181818,88.17427663998973L110.53172045454546,106.19356782179237L110.96029431818182,110.04391691053604L111.08634545454547,75.42158252405513L111.63844943181817,83.94868599759828L111.71408011363637,93.4462592343867L111.84013125,91.59498127173238L112.11744374999999,95.89092449724332L112.16786420454545,102.87723767132213L112.34433579545454,111.01197878769001L112.4955971590909,113.82128290598456L112.67206875,94.41056789147346L112.82333011363637,82.13455576242072L112.89896079545454,89.72567566615123L113.3275346590909,72.03201784974546L113.63005738636363,58.3622126988032L113.70568806818183,48.67145924295874L113.8821596590909,60.95935909039741L114.28552329545455,60.768703737096075L114.33594375,88.11418467399498L114.48720511363636,86.30866635140279L114.58804602272727,90.04875614479226L114.9914096590909,99.24134848598524L115.41998352272728,88.16004464846608L115.92418806818182,95.58472811047716L116.37545113636364,100.83078683278508L116.42587159090908,78.11082733872178L116.47629204545454,80.86069691216815L116.55192272727272,100.59254498077381L116.62755340909091,103.5284577468043L117.05612727272728,101.19245066313266L117.33343977272727,99.75732899263774L117.68638295454545,109.8174821512077L118.44268977272726,89.78066533832224L118.49311022727274,65.29450179696023L119.09815568181818,73.00746667293105L119.19899659090909,64.18265918608371L119.24941704545454,75.49891113043772L119.40067840909092,74.96989491974168L119.47630909090908,75.62828085402418L119.52672954545454,76.57897303705418L119.75362159090909,90.85366060855988L119.93009318181818,66.70866157468814L120.25782613636363,90.05388475230473L120.45950795454546,85.0641695477264L120.78724090909091,91.8349887603L120.83766136363636,88.33402474023892L120.91329204545454,97.00367906526664L121.21581477272727,94.0203816804303L116.04267613636364,103.26576105689229L116.16872727272727,105.82881545300702L116.21914772727273,89.84211183865405L116.47125,102.96161061436513L116.57209090909092,93.85772745045088L117.30318749999999,90.10695477010901L117.42923863636364,87.78050688826582L117.60571022727272,99.86511280150481L118.71496022727273,104.4771183797963L118.91664204545455,118.19488938310089L119.09311363636364,106.7188864585403L119.19395454545455,98.29577873652751L119.47126704545455,90.9890864930315L119.6225284090909,99.29067848658853L119.77378977272727,78.11076642594512L120.32841477272727,71.8151015372382L120.60572727272728,44.59451652526129L120.73177840909091,63.39748294584656L120.95867045454546,79.37204526835589L120.98388068181818,84.68066879410179L121.28388238636363,89.74469936412608L121.56119488636364,65.82144197707026L121.63682556818182,67.47509640131044L121.88892784090909,77.38099069230515L123.07380852272728,90.33585494231266L123.1998596590909,105.07197874894958L123.22506988636363,100.30380422283797L123.47717215909091,101.41343650551109L125.31751875,80.49476585160005L125.59483125000001,68.72875036307076L125.62004147727274,69.95872751181066L125.67046193181818,81.13873233551058L125.72088238636364,69.58287603436192L125.79651306818181,70.65805284929954L125.82172329545455,77.71252947983464L126.44945795454545,83.66714786934959L126.5755090909091,81.62546238570278L126.65113977272728,86.05902780539824L126.85282159090909,104.58834982695684L127.1301340909091,72.74661541451515L127.35702613636364,77.27806739405777L127.43265681818181,83.7085674871478L127.45786704545455,72.23233653380457L127.83602045454545,65.81770769265539L128.23938409090908,66.63915088223621L128.39064545454545,79.45793620273933L128.49148636363637,83.07021014066957L128.71837840909092,67.72071565322106L128.76879886363636,57.13015972199114L128.9956909090909,70.90463386974547L129.09653181818183,75.82825747303681L129.24779318181817,75.2144262094222L129.37384431818182,64.82371193249273L130.02931022727273,48.71241896710629L130.25620227272728,67.01536147384374L130.63435568181816,68.68103544041065L130.81082727272727,59.12429265368992L130.96208863636363,74.94752316246978L131.06292954545455,57.06699351582686L131.08813977272726,61.14519470827606L131.5646130681818,64.65593444047467L131.64024375,69.18146821019195L131.79150511363636,81.18287122513566L132.5478119318182,63.021874310169906L132.69907329545455,80.43667650658404L133.07722670454547,72.04197039184366L133.1276471590909,63.96941101367281L133.55622102272727,83.01803122137703L133.58143125,78.40284424102563L134.0604255681818,76.15695889297028L134.08563579545455,89.56981141781831L134.16126647727273,65.80358306332332L134.38815852272728,86.96442251235018L134.66547102272727,94.72170725193055L135.29572670454544,94.01590574731574L135.37135738636363,93.5994707521805L135.64866988636365,93.3743902499255L135.7243005681818,90.67312291676177L135.77472102272728,90.13762520713519L135.82514147727272,90.34008996549706L136.12766420454545,91.5125951818434L136.55371704545453,108.11456266780115L137.0831318181818,92.29453653452731L137.25960340909091,94.40346685520713L137.46128522727273,85.30438384013799L137.56212613636364,95.86797154135532L137.73859772727272,79.43827062105213L137.76380795454546,70.83301199571194L137.7890181818182,68.92178659751698L138.04112045454545,77.55348405140023L138.69658636363636,82.84867333878933L138.8226375,68.02616507714902L139.22600113636364,72.29290843379617L139.50331363636363,70.83425810558867L139.60415454545452,82.74208661689325L139.62936477272729,77.38683416623537L139.83104659090907,79.67333387242951L139.90667727272728,90.7027601210989L139.98230795454546,94.05952008163096L140.05793863636362,79.13251782244113L140.28483068181816,72.04373368322823L140.38567159090908,69.71568549437167L140.5621431818182,79.72460305804857L140.58735340909092,68.7541270092589L140.73861477272726,79.63498253182203L140.88987613636363,76.83480456717476L140.94029659090907,66.20426097489563L141.01592727272728,81.68500945469326L141.89576420454543,84.24048415805962L142.1982869318182,81.21530034874375L142.67728125,91.9745896195867L142.72770170454544,87.74430198625569L143.20669602272727,95.70949330507935L143.25711647727272,79.74274014579785L143.7613210227273,86.11968865056781L144.36636647727272,82.66289865836045L144.44199715909093,66.44065419184462L144.76973011363637,79.14509004646631L144.97141193181818,65.58837566380726L145.19830397727273,85.80664227965488L145.27393465909088,86.86003078898455L145.3243551136364,87.70387066020683L145.3495653409091,84.71158378149678L145.70250852272727,77.2234739727457L146.45629431818182,86.2312815007717L146.60755568181818,99.29518713031543L146.68318636363634,77.5710135888375L146.85965795454544,84.5534100714685L147.1873909090909,87.88890204160157L147.23781136363635,81.50853320300682L147.2630215909091,95.28777434006818L147.4394931818182,86.40107347541915L147.8932772727273,65.0877136552479L148.47311249999998,48.96601134324945L148.59916363636364,76.48692114395257L149.10336818181818,90.72759662415002L149.15378863636363,79.21238426516555L149.30505,72.79850804554627L149.9605159090909,61.99170723491943L150.08656704545456,75.44790103821948L150.4143,71.50192586994423L150.5151409090909,85.90557077690002L150.96892499999998,87.6266357491257L151.1706068181818,87.82475743233218L151.74792102272727,86.27821299244113L151.82355170454545,73.8667530312402L151.8487619318182,80.27503573264259L151.9496028409091,87.2960849928507L151.97481306818182,96.06734896637323L152.63027897727272,74.13209605435068L153.21011420454545,73.23549875662731L153.53784715909092,87.94952650693659L153.94121079545457,75.64905514614345L154.21852329545456,81.86405683421742L154.62188693181815,81.62106343852244L154.97483011363636,84.30064772642282L155.0000403409091,84.62483739302533L155.50424488636364,97.9972014649611L156.1092903409091,90.03530023410755L156.15971079545454,78.51796437451146L156.51013295454547,78.76517111236905L156.98912727272727,83.17876510724457L157.0143375,87.16749925131052L157.06475795454546,68.46788155947509L157.19080909090908,66.12905928356365L158.1235875,53.49361553365876L158.3000590909091,67.12492308448401L158.4009,74.41440404995386L158.55216136363637,63.727306058414264L158.7034227272727,61.948252251561385L158.82947386363637,69.14694316010059L158.90510454545455,87.78559723559675L158.95552500000002,85.88862206377777L159.3336784090909,77.95277436194026L159.56057045454546,92.54582390216454L159.76225227272727,99.50201728786081L160.19082613636363,85.33680016646669L160.31687727272728,81.52492113790274L160.36729772727273,69.97720434254366L160.66982045454546,72.03666561492997L160.7202409090909,79.56033039394534L160.87150227272727,72.59807955037236L161.174025,81.01709223957978L161.30007613636363,81.34863246185853L161.54965738636363,63.0967495006518L161.80175965909092,79.01093607234421L162.50764602272727,78.34378171274683L162.55806647727272,89.74795105301257L162.65890738636364,78.7517668891808L163.03706079545452,92.63749103394595L164.07068011363637,91.23801163480292L164.14631079545453,84.03120930664817L164.60009488636362,89.71859099840397L165.05387897727272,96.44399523277532L165.48245284090908,96.55681490453324L165.5580835227273,89.47978605957177L165.68413465909092,52.14566096145715L165.81018579545454,63.31064496666333L165.96144715909088,77.10819062812925L166.26396988636364,87.08548710905363L166.28918011363638,100.6688349512134L166.71523295454546,71.83464992274894L166.79086363636364,75.88366103650023L166.96733522727274,71.13110698577864L167.64801136363636,73.06908867122421L167.69843181818183,61.078393440188535L167.8749034090909,74.46005521035117L168.3286875,79.46381232799074L168.37910795454545,89.76847692015075L168.55557954545455,74.19806900516248L168.7824715909091,91.09041808185036L169.03457386363635,92.43485279164942L169.0597840909091,107.27565944959065L169.31188636363635,110.87043788040141L169.4127272727273,94.99625760319508L169.4379375,97.25208198514898L169.9169318181818,100.64036691734727L170.04298295454544,90.89717258712797L170.0934034090909,96.1426645567656L170.1942443181818,96.22908483364311L170.42113636363635,92.59268995772675L170.87492045454545,55.69018161684796L171.379125,63.26297669984075L171.50517613636364,56.32379263949412L171.7295471590909,76.46465603810046L171.88080852272725,92.98002059809691L171.90601875000002,95.47624217345567L172.0068596590909,93.00830318767665L172.0824903409091,51.055353511803375L172.6371153409091,55.56007251450258L173.0908994318182,78.5360479824559L173.1917403409091,81.04481860662965L173.31779147727272,76.2215416947929L173.49426306818182,67.55352130991643L173.72115511363637,79.03469644975404L173.77157556818182,71.3663996193598L174.0236778409091,85.03239146587276L174.17493920454547,86.69793737787789L174.2253596590909,93.08218762534986L174.37662102272725,96.11754040616488L174.42704147727272,74.64157679496844L174.4774619318182,91.33731719402796L174.7799846590909,78.76008650561593L174.83040511363635,71.37262841148289L174.88082556818182,62.99167213148879L175.46066079545454,66.76651609722977L175.6875528409091,63.74955992825495L175.76318352272727,74.74989377131946L176.1665471590909,86.70357168290973L176.41864943181818,81.24058060306966L176.44385965909092,83.92668934822986L176.49428011363636,97.38858254732948L176.64554147727273,77.92856314512305L176.79428181818182,75.52361856113629L176.97075340909092,76.8642088340651L177.09680454545455,66.86112033272231L177.27327613636362,74.59589641146242L177.4245375,80.22263901912028L177.75227045454545,91.26375794443061L178.40773636363636,90.49885770953381L178.98757159090908,87.53160760823044L179.0884125,86.80238036612279L179.1136227272727,89.51160514873881L179.29009431818181,76.14527824917718L179.71866818181817,90.18851127947654L179.99598068181817,89.99732113316827L180.27329318181816,101.24419866548794L180.44976477272726,95.43754264101618L180.60102613636363,90.71587770214816L181.2060715909091,89.37500152521301L182.59011306818184,84.10441332436525L182.69095397727273,51.91653508938929L183.01868693181817,47.96077604036934L183.2959994318182,67.07879328948245L183.39684034090908,64.53113664691269L183.59852215909092,61.17190282219848L183.62373238636363,67.95176224429215L183.72457329545455,91.14897952218708L183.9514653409091,79.4251088484517L183.97667556818183,78.1728315701718L184.2287778409091,97.7042361647269L184.25398806818183,98.1988312572468L184.27919829545453,81.70725973326478L184.48088011363637,76.59566067895685L184.98508465909092,88.54325460594872L185.59013011363638,86.8113420677303L185.74139147727274,93.0510692741601L185.76660170454545,99.3791877748532L185.84223238636363,99.91491742179852L186.09433465909092,85.90301225757807L186.32122670454544,96.6916615445558L186.39685738636362,79.73764982865544L186.6489596590909,70.45624341055671L186.77501079545453,74.27652437890805L187.68005795454545,89.63609655740999L187.90695,101.18996440368208L187.95737045454544,105.21328380361727L188.05821136363636,93.93988020299902L188.20947272727273,83.61348742889781L188.2851034090909,74.24723447265961L188.46157499999998,71.02296469409053L188.66325681818182,78.20345163566003L188.7388875,63.687494558568424L188.94056931818184,67.65470029774134L189.04141022727273,77.1669713267597L189.14225113636365,29.69101529515118L189.72208636363635,67.04734378318642L189.8229272727273,74.21067922526139L189.99939886363634,85.94554029404671L190.1002397727273,75.81983018389501L190.37755227272729,69.45802828865233L190.680075,67.35710116486794L191.08343863636364,84.09185025847583L191.7136943181818,94.98621157603296L192.08932670454544,74.8477243956309L192.44226988636365,76.4318210213071L192.64395170454546,87.62554114291328L192.84563352272727,97.74451706631253L192.99689488636363,91.52562872406658L193.02210511363637,109.07992465483949L193.4506789772727,112.47087347534269L193.67757102272725,102.75525766116276L193.82883238636364,87.9754182019517L194.03051420454545,106.14326346798279L194.10614488636364,92.80858338746408L194.66076988636365,90.95278945489513L195.08934375,97.57290583548078L195.3918664772727,75.21538642464357L195.4674971590909,52.54289276253149L195.61875852272726,68.59458035737852L196.07254261363636,69.74794780660874L196.1229630681818,75.01974192359144L196.5767471590909,63.66823058271975L196.67758806818182,74.7254637008156L196.75321875,78.7116862252501L197.20448181818182,64.26990993709249L197.3053227272727,65.55646903449825L197.4817943181818,78.99576180146568L197.80952727272728,96.39399477734314L197.96078863636362,88.86001257407581L198.31373181818182,95.27685681083831L198.61625454545455,98.92545190171958L198.79272613636363,109.28868320585654L198.99440795454547,108.53839868903974L199.19608977272728,98.2422721302558L199.2213,76.96561251548653L199.775925,92.54762717593913L199.87676590909092,99.91063153536356L200.22970909090907,94.94416384913126L200.53223181818183,92.30717101363045L200.55744204545456,83.78493262927357L200.73391363636364,86.51773298911056L201.08685681818181,75.62534787307689L201.23811818181818,78.21275906422613L201.41458977272728,76.55796288133703L201.46501022727273,44.09122225111492L201.69190227272728,74.63439489114315L201.74232272727272,89.82515819665043L201.76753295454546,88.75772200531085L202.24400624999998,77.29363087717486L202.31963693181817,76.77907313221397L202.54652897727271,86.75964997086858L202.87426193181818,106.85849919840058L203.22720511363636,109.53427467386256L203.47930738636364,111.88528289410243L203.88267102272727,106.77058610583151L204.1599835227273,102.97505839454585L204.61376761363638,72.98054730424897L204.86586988636364,95.09979187310365L204.89108011363638,93.81535402368169L205.04234147727274,102.03342470783389L205.21881306818182,107.98532388108866L205.31965397727274,95.1518978889374L205.34486420454544,109.89988698541366L205.37007443181818,104.56878304128537L205.92469943181817,99.43881403166294L205.94990965909093,92.489067948978L206.05075056818183,85.12491474320599L206.10117102272727,77.3519920420568L206.32806306818182,88.6765045658473L206.42890397727274,82.4038943899535L207.15747954545455,80.93650744276422L207.1826897727273,87.49137819615454L207.40958181818183,86.1229024730854L207.4852125,75.64124919362689L207.6616840909091,77.72390475419144L207.91378636363635,91.28280573387562L207.93899659090908,105.52725720499016L207.96420681818182,99.6267232679115L207.98941704545453,106.369530571184L208.1154681818182,93.59756484787549L208.26672954545455,89.97865500971778L208.36757045454544,98.43598315415699L208.4179909090909,95.65346959921754L208.82135454545454,93.98971273545816L208.9726159090909,98.82611971779444L208.99782613636364,110.4681606333481L209.19950795454545,96.73085011318058L209.6785022727273,81.78225482269961L210.10707613636364,70.54140056997868L210.76254204545455,80.43008605821844L211.34237727272728,87.92207668448124L211.51884886363635,69.07274426696337L211.67011022727274,79.82997048730805L211.7457409090909,91.66567808376558L212.52473693181818,95.74102020255808L212.5499471590909,98.13116340121593L212.95331079545454,97.98630437337225L212.97852102272725,107.10785670414998L213.23062329545456,109.25794710546566L213.30625397727272,92.35839320660388L213.3566744318182,91.18437109852289L213.63398693181819,66.81331927201678L213.78524829545455,85.64386938329314L213.8608789772727,81.47943744336742L213.96171988636365,77.88253001905018L214.41550397727272,69.59100661597572L214.44071420454546,58.87259722901536L214.54155511363635,74.34501017508512L214.61718579545456,59.00158651015012L214.66760625,59.86758417690305L215.02054943181818,75.6713027661456L215.1213903409091,97.59162266882738L215.3987028409091,98.85503838473332L215.47433352272725,84.84932807351555L215.97853806818182,98.08520448962095L216.18021988636366,88.6139745859714L216.43232215909092,75.28673582621032L216.45753238636365,87.87206449801012L216.73484488636365,65.40253923523424L217.3121590909091,89.97948782896653L217.43821022727272,96.79179769651344L217.8667840909091,72.9750563257709L218.4466193181818,89.66009198492276L218.9760340909091,90.55604950024275L219.00124431818182,89.25829393185471L219.1020852272727,83.53661159585296L219.20292613636363,75.83071663326248L219.65671022727273,88.61074784689595L219.80797159090906,49.5303781569465L219.83318181818183,30.716955891534656L220.89201136363636,36.81369319123838L221.09369318181817,59.90400670250798L221.295375,73.50587746583037L221.32058522727272,92.65297081690028L221.74915909090907,87.72374433649179L221.9508409090909,51.17263206806198L222.07689204545457,74.6242443244499L222.17773295454546,61.499651001571706L222.45252443181818,70.44568148398002L222.7550471590909,70.28900073085957L222.8306778409091,73.91621416875559L222.88109829545454,78.4513071353792L222.98193920454545,64.67904309740162L223.18362102272727,62.9452742254508L224.69623465909092,61.887147193384244L224.84749602272728,75.91368947170669L224.87270625,96.2982833676657L224.92312670454547,72.90021484964106L225.30128011363638,69.50344932855118L225.47775170454543,74.52182958591551L226.05758693181818,85.55216015107288L226.1584278409091,92.23444083170207L226.4357403409091,79.86634976510729L226.51137102272727,72.07943648603273L226.93994488636363,82.10026665376509L227.09120625,87.077044968033L227.4164181818182,91.07593668780744L227.92062272727273,100.34328035880338L228.14751477272728,96.04400061248413L228.50045795454545,100.84565175154437L228.5508784090909,74.01789768768244L228.60129886363634,85.9875987237098L228.8281909090909,91.13734793371654L229.05508295454544,88.43739505320522L229.25676477272728,79.08497450859899L229.76096931818182,98.46204535857343L229.8113897727273,100.58837877415633L229.88702045454545,75.11634902862235L229.9374409090909,39.35685548182273L230.0887022727273,56.37406670959643L230.391225,62.77976308157014L230.41643522727273,49.34054460289627L230.59290681818183,65.93714615373769L230.66853749999999,70.04524490891414L230.79458863636364,65.41665812867848L230.97106022727274,86.14088606133271L231.0214806818182,60.01048008634318L232.3072022727273,67.64770702654607L232.58199375,85.39396592629076L232.6576244318182,68.96687092829163L232.78367556818182,82.45088152812114L233.18703920454544,61.11703051591203L233.28788011363636,82.25920511335133L233.3130903409091,100.20335377910307L233.36351079545454,98.70511972870995L233.43914147727276,89.58262092366047L233.6156130681818,87.99580404882737L233.71645397727275,96.43438206066043L233.81729488636364,91.62704572477125L234.0441869318182,84.66963003855712L234.0693971590909,87.44446814355881L234.19544829545455,84.66883353683217L234.29628920454545,71.99184607952837L234.32149943181818,53.3579596352833L234.6996528409091,73.92091413996734L235.48116988636366,69.41789149610894L235.78369261363636,75.36821736913143L235.96016420454546,80.42999913534823L236.0862153409091,74.12284427003274L236.43915852272727,58.54497400336049L236.66605056818182,58.78485197670807L237.0442039772727,60.89606851503921L237.32151647727272,72.9821354995112L237.49798806818183,74.12523752237713L237.52067727272726,71.47664668602391L237.59630795454547,46.727435542088315L237.7475693181818,60.23118977466574L238.70555795454547,61.78319280576319L238.78118863636362,65.34559727108588L238.8316090909091,64.64472529783654L238.90723977272728,67.71650058070563L238.93245000000002,57.60261980318869L239.0332909090909,78.52321777289842L239.84001818181818,64.83288332634324L240.19296136363636,49.60751172618532L240.8736375,68.88858346003742L241.02489886363637,79.04108195901696L241.12573977272726,86.51038229789519L241.57952386363635,92.16606391351844L241.705575,84.18051743351559L242.08372840909092,86.60223364395924L242.15935909090908,85.10023834444897L242.23498977272726,95.33557519143369L242.7618835227273,73.97753875747648L243.03919602272728,85.13500768548019L243.36692897727272,89.62545528432335L243.39213920454546,90.93365590823055L243.64424147727271,73.60157038089764L243.71987215909093,85.67287448918812L243.82071306818182,73.68834713112622L244.24928693181818,74.89688313099244L244.29970738636362,82.4313386684209L244.37533806818183,91.33263437781036L244.90475284090908,101.52745588322458L244.95517329545453,94.19227781798145L245.08122443181819,102.09983205653933L245.35853693181818,97.01941233788553L245.56021875,101.22999923689225L245.6610596590909,80.57781109540925L246.08963352272727,83.04757587680207L246.24089488636363,92.66944297380354L246.49299715909092,84.09408702645109L246.54341761363636,90.56720740229221L246.69467897727273,93.97255473853205L246.8207301136364,83.66570377575275L246.94678125,84.75723811352972L247.02241193181817,81.06648704541841L247.40056534090908,71.84842833104459L247.42577556818182,79.12615190706858L248.10393068181818,86.01097535519554L248.3056125,68.61108133452387L248.55771477272728,69.98528576987192L248.63334545454543,63.358785976410275L248.83502727272727,80.00337758797258L249.36444204545455,77.20030757526412L249.5157034090909,69.46362701243928L249.7930159090909,51.63857628473841L249.81822613636365,75.50438442824945L250.6249534090909,34.66564982362359L250.65016363636363,55.59547648480481L250.801425,68.83087832379054L252.1123568181818,79.9707866639188L252.16277727272728,77.15508029556307L252.33924886363636,79.80118203833463L252.41487954545454,90.17075987264373L252.59135113636364,82.22591274911505L253.26950625,77.17674616876705L253.79892102272726,73.7361811870543L254.05102329545454,72.03916683979934L254.4543869318182,90.025421444277L254.50480738636364,75.04032323410684L254.5552278409091,82.69670638489214L254.6812789772727,80.54119127080476L255.2863244318182,67.29945464440708" style="fill: none;" fill="none"></path></g></g></g></g><g opacity="0.2"><g><g><g><path stroke="rgb(255, 112, 67)" stroke-width="2px" d="M26.622,-25.05038549218858L27.00015340909091,6.126693248748779L27.07578409090909,-24.774864128657754L27.579988636363634,-6.683324473244792L27.781670454545452,54.36462723357337L27.882511363636365,-9.833530936922363L28.38671590909091,-133.6513336045402L29.1178125,40.41361708300454L29.193443181818182,27.699792955602916L29.42033522727273,5.326775499752584L29.69764772727273,10.460205265453878L29.823698863636363,-12.363546814237345L30.980848295454543,-82.87734762259898L31.10689943181818,23.707702262060973L31.485052840909088,38.535991966724396L31.636314204545457,-8.812529938561564L31.76236534090909,73.90065331118447L31.938836931818184,-29.617550356047506L32.090098295454546,14.910490955625264L32.569092613636364,70.1248757498605L32.97245625,43.92127336774553L33.02287670454545,21.223744767052775L33.22455852272727,10.679992369243063L33.527081249999995,-18.823114361081828L33.75397329545455,36.301271208695L33.95565511363637,-55.16634300776892L34.35901875,31.41976843561444L34.45985965909091,74.1686690875462L35.81869090909091,-45.95082332406728L35.843901136363634,77.34184445653644L36.272475,72.44679997648511L36.34810568181818,58.25812797035489L36.423736363636365,65.07305040529796L36.80188977272727,90.966082743236L36.877520454545454,-22.280356611524333L36.90273068181818,91.38972264954022L37.154832954545455,45.30807377610887L37.633827272727274,32.76013367516654L38.163242045454545,-48.398760029247825L38.591815909090904,35.10101779869625L38.71786704545454,34.77000331878662L39.398543181818184,79.77813845872879L39.650645454545455,10.428841556821553L39.80190681818182,34.7253993323871L39.97837840909091,53.06779590674809L40.00358863636363,-19.686950172696818L40.381742045454544,29.502264235700878L40.83300511363636,27.86181868825639L40.88342556818182,88.49061801603862L41.18594829545455,-6.140525834900981L41.36241988636364,56.170866378716056L41.38763011363636,81.57495794125965L41.438050568181815,8.661848493984762L41.51368125,36.02110783542905L41.56410170454545,17.400175605501445L41.86662443181819,-22.370875801358928L42.11872670454545,26.451454051903312L42.54730056818182,104.19187683718545L43.202766477272725,55.73723032644817L43.30360738636364,60.40321875470025L43.40444829545454,22.393455862998962L43.60613011363637,61.61983223472322L43.8330221590909,98.62457364371845L43.933863068181815,4.436459132603231L44.16075511363636,102.57811907785279L44.261596022727275,66.47263894762311L44.488488068181816,-35.037172079086304L44.58932897727273,55.42504010030201L44.63974943181818,26.26953399181366L44.69016988636364,42.40643336943218L44.86664147727273,19.08659664222172L44.992692613636365,48.79019147157669L45.04311306818182,-15.234916193144674L45.16916420454545,17.92461720534733L45.219584659090906,13.274634667805257L45.32042556818182,67.1118346452713L45.42126647727273,73.43196104254041L45.570006818181824,75.66188154050282L45.59521704545455,78.45249050004142L46.17505227272727,52.31548136472702L46.275893181818184,74.80380302667618L47.107830681818186,25.24381562641689L47.284302272727274,106.91309302619526L47.43556363636364,25.423248895577018L47.788506818181816,53.66617809023175L47.88934772727273,68.40803297076907L48.065819318181816,44.01923032317842L48.116239772727276,30.915168413094108L48.26750113636364,96.42300633021763L48.31792159090909,-43.66835618019104L48.67086477272728,34.097235943589894L48.696075,-43.95897914682115L48.94817727272728,63.30527362653187L49.023807954545454,9.378858140536703L49.2507,101.85626395685333L49.35154090909091,50.670521914958954L49.45238181818182,73.70353368350438L49.67927386363637,85.13962202412742L49.70448409090909,83.99705462796348L49.855745454545456,35.51472184487751L49.88095568181818,87.05764618941716L50.007006818181814,62.85603861297879L50.4607909090909,62.80504432746342L50.53390056818182,12.75041913986206L50.76079261363636,-8.612380947385539L51.51709943181819,99.03486777203423L51.844832386363635,68.82232480389732L51.99609375,95.0211533010006L52.07172443181818,29.48943088735852L52.122144886363635,48.909791043826516L52.22298579545455,48.141267146383015L52.37424715909091,49.08419044528688L52.50029829545455,79.23757793222155L52.75240056818181,-13.618471946035136L52.90366193181818,107.04291481631142L53.02971306818181,76.06684413978032L53.28181534090909,63.97348942075456L54.34064488636364,5.731052347591939L54.44148579545454,56.84300075258527L54.46669602272728,53.858489922114785L54.49190625,-3.0617430210113525L54.94569034090909,80.45745438337326L55.27342329545454,22.42528678689683L55.59863522727272,71.54533072880336L56.25410113636364,92.61181460533822L56.55662386363636,45.439519516059335L56.83393636363636,73.12749493973595L56.90956704545455,103.89138206413814L56.98519772727273,81.05262634583882L57.489402272727276,50.65275266340801L57.64066363636364,73.52227676766259L57.81713522727273,9.680920345442628L57.96839659090909,103.60014116764069L58.37176022727272,57.053270229271476L58.44739090909091,19.93346198967525L58.724703409090914,3.083087222916728L58.80033409090909,-11.593334913253784L58.87596477272727,47.730245820113595L58.901175,-0.9082875762667031L60.1112659090909,39.867585616452345L60.18689659090909,-5.780061721801758L60.26252727272727,23.418767298970906L60.287737500000006,95.30187431829316L60.83984147727273,57.592459252902444L61.14236420454546,65.09876985209328L61.19278465909091,59.22316110134125L61.39446647727272,52.38161493199212L61.495307386363635,45.537227792399264L62.12556306818181,38.27707935231072L62.15077329545455,50.49362818683896L62.42808579545455,84.81574388061252L62.62976761363636,42.07713703598294L62.73060852272727,-13.316032954624715L62.781028977272726,95.69039395451546L63.58775625,29.92140154327664L63.68859715909091,86.22844459329333L64.31885284090909,54.478997009141096L64.72221647727272,112.14181209887778L64.74742670454545,101.62301050339426L65.12558011363636,57.770897805690765L65.22642102272727,96.04376694560051L65.6297846590909,25.97551994664329L65.65499488636364,94.54408883622715L65.98020681818183,86.68209554467883L66.20709886363636,87.30349938358579L66.33315,48.50604169709342L66.45920113636363,28.887393874781463L66.53483181818181,77.29895108086723L66.66088295454546,65.60886342184884L66.73651363636364,86.74282599346978L67.03903636363636,122.86492806034428L67.24071818181818,88.29869804212025L67.41718977272727,120.94349586112159L67.59366136363636,68.96720675059727L67.8205534090909,90.16139487709319L67.92139431818181,64.36258177246366L67.97181477272727,-1.4007023232324007L68.02223522727273,66.58557693447385L68.09786590909091,16.549451964242106L68.2743375,108.526100980384L68.50122954545455,8.27846068995339L68.75333181818182,57.27225854567119L68.85417272727273,74.46134177276066L68.90459318181819,33.52288520336151L68.98022386363637,117.62852442690304L69.106275,57.238536153520855L69.18190568181818,90.774110019207L69.20711590909092,87.25163095338004L69.71132045454546,82.93304721798215L69.93821249999999,66.97753286361694L70.08947386363637,64.24811403240476L70.26594545454546,79.62136512994766L70.29115568181818,47.04417788130897L70.51804772727272,15.782616070338644L70.69451931818182,29.3002614549228L71.22141306818182,68.78610054935727L71.32225397727272,57.04493571179253L71.57435625,87.60883963108063L71.6751971590909,54.92170608043671L71.90208920454545,39.597670836108065L72.2298221590909,7.114175319671631L72.3054528409091,92.22324598687035L72.45671420454545,104.92117725951331L72.50713465909091,54.783304861613686L73.36428238636363,96.73849720614297L73.51554375,53.330483921936576L73.94411761363635,103.99575569374221L74.19621988636364,91.80105670860836L74.27185056818182,73.23438173532486L74.32227102272728,69.36948662996292L74.77605511363636,69.14888566732407L75.12899829545455,118.40550341350692L75.17941875,115.36159972633634L75.63320284090908,24.62309753894806L75.73404375,109.10862421989441L75.93320454545454,121.75047082134655L76.3617784090909,25.502366525786254L76.51303977272727,108.39506970558847L77.11808522727273,105.17123162320682L77.44581818181818,67.91399050610406L77.52144886363637,96.48930191567966L77.54665909090909,42.87294027635029L77.59707954545453,5.181833267211914L77.64750000000001,70.6539442879813L77.74834090909091,-3.084500925881511L77.84918181818182,90.9399111526353L78.0256534090909,107.68563346777643L78.40380681818182,103.28112733789852L79.26095454545454,83.39620072501046L79.36179545454546,21.542958293642315L79.53826704545455,104.20038467645645L79.7651590909091,75.58042783396584L80.06768181818181,31.61989481960023L80.3197840909091,111.00970806394304L80.37020454545454,42.66062108107975L80.420625,38.92855829000473L80.54667613636364,36.92942706176213L80.62230681818181,-15.76716480936324L80.82398863636364,-3.508868030139384L80.92230852272728,50.29185901369367L81.42651306818182,51.397576689720154L81.55256420454545,99.8876750426633L81.57777443181817,82.59810662269592L81.62819488636364,50.09811539309365L81.70382556818183,61.89830760444913L81.80466647727272,115.81031854237828L81.82987670454546,100.6637723488467L82.00634829545454,77.62798366376332L82.08197897727273,16.909810577120098L82.20803011363637,81.40306793791908L82.68702443181817,48.380737577165874L82.93912670454546,17.450363567897238L83.09038806818182,67.43619507551193L83.24164943181817,66.33298679760524L83.3424903409091,86.27780362537929L83.64501306818183,90.36256872756141L83.67022329545455,93.6324275135994L84.30047897727273,132.73771412244864L84.52737102272728,85.1102477482387L85.40972897727272,53.562742659023826L85.43493920454546,24.419647897992817L85.4853596590909,64.72658767870495L85.83830284090908,-75.6605899163655L86.59208863636364,38.66458920070103L86.79377045454545,61.77824081693376L86.97024204545454,111.16836532524654L87.0206625,104.7880849625383L87.07108295454546,37.501479404313216L87.19713409090909,79.86179259845188L87.82738977272727,84.32919946738652L87.85260000000001,51.158287116459434L88.10470227272727,79.11410499470574L88.15512272727274,56.24265927927834L88.28117386363637,72.02617813008172L88.63411704545454,39.57091899429048L88.78537840909091,59.24246010610035L89.01227045454546,85.07348092113223L89.39042386363636,43.15497251067842L89.49126477272726,65.6405662383352L89.54168522727274,73.07968826804843L89.86941818181819,73.23931010280337L90.1719409090909,51.139719077519004L90.47446363636364,82.64353200367519L90.72656590909091,66.47520863158363L90.87782727272727,102.98174031717437L91.30388011363637,97.14796240414893L91.45514147727272,42.93894573620388L91.48035170454546,88.22378534930093L91.83329488636365,99.8556821005685L91.98455625,79.05275661604745L92.11060738636364,124.18911220346178L92.69044261363636,62.97805715458733L92.86691420454545,62.89665619816098L92.9929653409091,83.78960351433072L93.32069829545455,113.10762141006333L93.49716988636364,79.50777907030923L93.87532329545455,109.01309000168527L94.17784602272728,84.24516100542886L94.25347670454545,97.42412430473736L94.60641988636362,43.93094170945031L94.63163011363636,102.18607648781368L94.68205056818182,31.911881753376548L95.4887778409091,59.29799843685967L95.51398806818183,71.7780943598066L95.53919829545455,77.4416702730315L95.71566988636363,99.6376206789698L95.99298238636364,89.43982611383711L96.36861477272728,89.76501924225262L96.49466590909091,97.04736417531967L97.57870568181818,66.98929613828659L97.80559772727273,43.615970798901145L98.03248977272726,93.81958490610123L98.18375113636364,60.98952116285051L98.28459204545454,112.49895295500755L98.71316590909092,86.03039807081223L98.76358636363636,56.37835517099926L98.78879659090909,47.89141247953687L99.97367727272727,65.83756529433387L100.17535909090908,53.42809423378536L100.75519431818182,46.23459179060799L100.98208636363637,40.408146142959595L101.08292727272728,100.44882318377495L101.18124715909092,99.32719758152962L101.20645738636364,51.020496291773654L101.48376988636365,63.09351207528795L101.55940056818181,104.98717141577175L101.76108238636364,73.46523129088538L101.83671306818182,79.09136216129575L102.44175852272727,47.73488029411861L102.54259943181818,54.96395891904831L102.59301988636365,63.86177975790841L103.29890625,100.83798335705484L103.87874147727273,82.99955757175174L104.25689488636363,113.7542284982545L104.45857670454545,84.06151526314872L104.58462784090909,29.595624395779197L104.71067897727272,80.89273322480065L104.81151988636363,36.313614734581535L104.8619403409091,61.83318382501602L105.26530397727272,56.198921901839114L105.71908806818182,78.21305021217891L105.74429829545456,80.89944756031036L105.92076988636363,86.61037800141743L105.99640056818183,75.55344992024558L106.59892500000001,87.00575515202114L106.67455568181818,47.55815988779068L106.85102727272728,64.26046509402138L106.92665795454546,64.51839806352342L106.95186818181818,69.87860055480685L107.00228863636363,44.87450554541179L107.02749886363637,122.6658887054239L107.65775454545454,113.84441234810012L107.88464659090909,91.64995401671955L108.48969204545455,119.0921742107187L108.69137386363636,47.406571141311105L109.04431704545453,87.9972311598914L109.06952727272727,50.27583805152348L109.49810113636364,102.73297456332615L110.22919772727273,110.11013028451374L110.27961818181818,79.28340270689556L110.53172045454546,133.22250459449631L110.96029431818182,115.81944054365158L111.08634545454547,23.48808094433376L111.63844943181817,96.73934120791299L111.71408011363637,107.69261908956936L111.84013125,88.81806432775089L112.11744374999999,102.33483933550971L112.16786420454545,113.35670743244034L112.34433579545454,123.21409046224184L112.4955971590909,118.03523908342633L112.67206875,65.29449536970684L112.82333011363637,63.720537568841664L112.89896079545454,101.11235552174705L113.3275346590909,45.49153112513679L113.63005738636363,37.85750497238976L113.70568806818183,34.13532905919212L113.8821596590909,79.39120886155537L114.28552329545455,60.482720707144054L114.33594375,129.13240607934338L114.48720511363636,83.60038886751447L114.58804602272727,95.65889083487647L114.9914096590909,113.03023699777467L115.41998352272728,71.53808889218739L115.92418806818182,106.72175330349377L116.37545113636364,108.69987491624696L116.42587159090908,44.030888097626814L116.47629204545454,84.98550127233777L116.55192272727272,130.19031708368232L116.62755340909091,107.93232689585005L117.05612727272728,97.68844003762518L117.33343977272727,97.60464648689543L117.68638295454545,124.9077118890626L118.44268977272726,59.72544011899403L118.49311022727274,28.565256484917228L119.09815568181818,84.57691398688725L119.19899659090909,50.945447955812725L119.24941704545454,92.47328904696873L119.40067840909092,74.17637060369763L119.47630909090908,76.61585975544793L119.52672954545454,78.00501131159919L119.75362159090909,112.2656919658184L119.93009318181818,30.491163023880546L120.25782613636363,125.07171951872962L120.45950795454546,77.57959674085889L120.78724090909091,101.99121757916042L120.83766136363636,83.08257871014732L120.91329204545454,110.00816055280822L121.21581477272727,89.54543560317585L116.04267613636364,117.1338301215853L116.16872727272727,109.6733970471791L116.21914772727273,65.8620564171246L116.47125,122.64085877793175L116.57209090909092,80.2019027045795L117.30318749999999,84.48079574959618L117.42923863636364,84.29083506550107L117.60571022727272,117.99202167136329L118.71496022727273,111.39512674723352L118.91664204545455,138.77154588805777L119.09311363636364,89.50488207169941L119.19395454545455,85.66111715350833L119.47126704545455,80.02904812778745L119.6225284090909,111.74306647692407L119.77378977272727,46.34089833498001L120.32841477272727,62.371604204177856L120.60572727272728,3.763639007295878L120.73177840909091,91.60193257672447L120.95867045454546,103.33388875211989L120.98388068181818,92.64360408272063L121.28388238636363,97.34074521916253L121.56119488636364,29.936555896486553L121.63682556818182,69.95557803767068L121.88892784090909,92.23983212879726L123.07380852272728,109.76815131732396L123.1998596590909,127.17616445890494L123.22506988636363,93.15154243367058L123.47717215909091,103.07788492952074L125.31751875,49.11675987073353L125.59483125000001,51.07972713027681L125.62004147727274,71.8036932349205L125.67046193181818,97.90873957106045L125.72088238636364,52.24909158263887L125.79651306818181,72.27081807170596L125.82172329545455,88.29424442563739L126.44945795454545,92.59907545362199L126.5755090909091,78.56293416023254L126.65113977272728,92.70937593494142L126.85282159090909,132.38233285929473L127.1301340909091,24.98401379585266L127.35702613636364,84.0752453633717L127.43265681818181,93.35431762678283L127.45786704545455,55.01799010378974L127.83602045454545,56.19576443093163L128.23938409090908,67.87131566660744L128.39064545454545,98.68611418349403L128.49148636363637,88.48862104756492L128.71837840909092,44.6964739220483L128.76879886363636,41.24432582514626L128.9956909090909,91.56634509137699L129.09653181818183,83.21369287797383L129.24779318181817,74.29367931400027L129.37384431818182,49.237640517098555L130.02931022727273,24.54547951902661L130.25620227272728,94.46977523394993L130.63435568181816,71.17954639026097L130.81082727272727,44.78917847360883L130.96208863636363,98.68236892563957L131.06292954545455,30.24619904586247L131.08813977272726,67.26249649694988L131.5646130681818,69.92204403877258L131.64024375,75.96976886476789L131.79150511363636,99.18497574755123L132.5478119318182,35.78037893772125L132.69907329545455,106.55887980120522L133.07722670454547,59.449911219733096L133.1276471590909,51.860571946416584L133.55622102272727,111.59096153293336L133.58143125,71.48006377049855L134.0604255681818,72.78813087088722L134.08563579545455,109.6890902050904L134.16126647727273,30.15424053158078L134.38815852272728,118.70568168589047L134.66547102272727,106.35763436130115L135.29572670454544,92.95720349039351L135.37135738636363,92.97481825947762L135.64866988636365,93.03676949654306L135.7243005681818,86.62122191701617L135.77472102272728,89.3343786426953L135.82514147727272,90.64378710303987L136.12766420454545,93.27135300636292L136.55371704545453,133.0175138967378L137.0831318181818,68.56449733461652L137.25960340909091,97.56686233622688L137.46128522727273,71.6557593175343L137.56212613636364,111.71335309318134L137.73859772727272,54.79371924059731L137.76380795454546,57.92512405770165L137.7890181818182,66.05494850022453L138.04112045454545,90.50103023222515L138.69658636363636,90.79145726987294L138.8226375,45.79240268468857L139.22600113636364,78.6930234687669L139.50331363636363,68.64628261327744L139.60415454545452,100.6038293838501L139.62936477272729,69.35395549024854L139.83104659090907,83.10308343172073L139.90667727272728,107.24689949410302L139.98230795454546,99.09466002242905L140.05793863636362,56.74201443365642L140.28483068181816,61.41055747440883L140.38567159090908,66.22361321108681L140.5621431818182,94.73797940356391L140.58735340909092,52.298412936074385L140.73861477272726,95.95626581566674L140.88987613636363,72.63453762020383L140.94029659090907,50.25844558647701L141.01592727272728,104.90613217438971L141.89576420454543,88.07369621310916L142.1982869318182,76.67752463476998L142.67728125,108.11352352585112L142.72770170454544,81.39887053625924L143.20669602272727,107.65728028331483L143.25711647727272,55.79261040687561L143.7613210227273,95.68511140772274L144.36636647727272,77.4777136700494L144.44199715909093,42.10728749207088L144.76973011363637,98.20174382839883L144.97141193181818,45.253304089818684L145.19830397727273,116.13404220342636L145.27393465909088,88.44011355297906L145.3243551136364,88.96963046704019L145.3495653409091,80.22315346343177L145.70250852272727,65.99130925961903L146.45629431818182,99.74299279281071L146.60755568181818,118.89104557463101L146.68318636363634,44.984753276620594L146.85965795454544,95.02700479541505L147.1873909090909,92.8921399968011L147.23781136363635,71.93797994511468L147.2630215909091,115.95663604566029L147.4394931818182,73.07102217844555L147.8932772727273,33.11767392499107L148.47311249999998,24.78345787525177L148.59916363636364,117.76828584500721L149.10336818181818,112.08860984444618L149.15378863636363,61.939565726688926L149.30505,63.17769371611732L149.9605159090909,45.7815060189792L150.08656704545456,95.63219174316951L150.4143,65.58296311753136L150.5151409090909,107.51103813733374L150.96892499999998,90.20823320746422L151.1706068181818,88.12193995714188L151.74792102272727,83.95839633260455L151.82355170454545,55.24956308943885L151.8487619318182,89.88745978474617L151.9496028409091,97.82765888316291L151.97481306818182,109.224244926657L152.63027897727272,41.2292166863169L153.21011420454545,71.89060281004224L153.53784715909092,110.02056813240051L153.94121079545457,57.198348104953766L154.21852329545456,91.18655936632837L154.62188693181815,81.25657334497997L154.97483011363636,88.32002415827343L155.0000403409091,85.11112189292908L155.50424488636364,118.0557475728648L156.1092903409091,78.09244838782719L156.15971079545454,61.24196058511734L156.51013295454547,79.13598121915545L156.98912727272727,89.79915609955788L157.0143375,93.1506004674094L157.06475795454546,40.41845502172197L157.19080909090908,62.620825869696475L158.1235875,34.54044990880149L158.3000590909091,87.57188441072192L158.4009,85.3486254981586L158.55216136363637,47.69665907110486L158.7034227272727,59.27967154128211L158.82947386363637,79.94497952290943L158.90510454545455,115.74357834884098L158.95552500000002,83.04315930604935L159.3336784090909,66.04900280918393L159.56057045454546,114.43539821250098L159.76225227272727,109.93630736640522L160.19082613636363,64.08897448437554L160.31687727272728,75.8071025950568L160.36729772727273,52.655629149505074L160.66982045454546,75.12585752350944L160.7202409090909,90.8458275624684L160.87150227272727,62.15470328501293L161.174025,93.6456112733909L161.30007613636363,81.84594279527664L161.54965738636363,35.718925058841705L161.80175965909092,102.88221592988288L162.50764602272727,77.34305017335075L162.55806647727272,106.85420506341117L162.65890738636364,62.25749064343316L163.03706079545452,113.46607725109374L164.07068011363637,89.1387925360884L164.14631079545453,73.22100581441607L164.60009488636362,98.24966353603772L165.05387897727272,106.53210158433234L165.48245284090908,96.72604441217014L165.5580835227273,78.86424279212952L165.68413465909092,-3.8555266857147217L165.81018579545454,80.05812097447259L165.96144715909088,97.80450912032808L166.26396988636364,102.05143183044025L166.28918011363638,121.04385671445301L166.71523295454546,28.583372380052296L166.79086363636364,81.95717770712716L166.96733522727274,64.00227590969631L167.64801136363636,75.97606119939259L167.69843181818183,43.09235059363502L167.8749034090909,94.53254786559513L168.3286875,86.96944800445011L168.37910795454545,105.22547380839075L168.55557954545455,50.84245713268007L168.7824715909091,116.42894169688225L169.03457386363635,94.45150485634804L169.0597840909091,129.53686943650246L169.31188636363635,116.26260552661759L169.4127272727273,71.18498718738556L169.4379375,100.63581855807985L169.9169318181818,105.72279431564468L170.04298295454544,76.28238109179905L170.0934034090909,104.01090251122201L170.1942443181818,96.35871524895941L170.42113636363635,87.13809764385223L170.87492045454545,0.33641910552978516L171.379125,74.62216932432992L171.50517613636364,45.915016548974165L171.7295471590909,106.67595113601004L171.88080852272725,117.75306743809155L171.90601875000002,99.22057453649384L172.0068596590909,89.30639470900809L172.0824903409091,-11.87407100200653L172.6371153409091,62.317151018551414L173.0908994318182,113.00001118438584L173.1917403409091,84.80797454289028L173.31779147727272,68.98662632703781L173.49426306818182,54.55149073260171L173.72115511363637,96.25645915951048L173.77157556818182,59.863954373768394L174.0236778409091,105.5313792356423L174.17493920454547,89.19625624588558L174.2253596590909,102.65856299655778L174.37662102272725,100.6705695773874L174.42704147727272,42.42763137817383L174.4774619318182,116.38092779261726L174.7799846590909,59.894240472997936L174.83040511363635,60.291441270283286L174.88082556818182,50.42023771149772L175.46066079545454,72.42878204584122L175.6875528409091,59.2241256747927L175.76318352272727,91.2503945359162L176.1665471590909,104.63408855029515L176.41864943181818,73.0460939833096L176.44385965909092,87.95585246597018L176.49428011363636,117.58142234597886L176.64554147727273,48.73853404181344L176.79428181818182,71.91620168515614L176.97075340909092,78.87509424345834L177.09680454545455,51.85648758070809L177.27327613636362,86.19806052957263L177.4245375,88.66275293060711L177.75227045454545,107.8254363323961L178.40773636363636,89.35150735718864L178.98757159090908,83.0807324562754L179.0884125,85.7085395029613L179.1136227272727,93.5754423226629L179.29009431818181,56.09578789983476L179.71866818181817,111.25336082492555L179.99598068181817,89.71053591370583L180.27329318181816,118.11451496396745L180.44976477272726,86.72755860430854L180.60102613636363,83.63338029384613L181.2060715909091,87.3636872598103L182.59011306818184,76.19853102309364L182.69095397727273,3.6347177369253947L183.01868693181817,42.02713746683938L183.2959994318182,95.75581916315215L183.39684034090908,60.709651683058055L183.59852215909092,56.13305208512715L183.62373238636363,78.12155137743268L183.72457329545455,125.94480543902941L183.9514653409091,61.83930283784866L183.97667556818183,76.29441565275192L184.2287778409091,127.00134305655956L184.25398806818183,98.94072389602661L184.27919829545453,56.96990244729179L184.48088011363637,68.92826209749494L184.98508465909092,106.46464549643653L185.59013011363638,84.21347326040268L185.74139147727274,102.41066008380481L185.76660170454545,108.8713655258928L185.84223238636363,100.71851189221655L186.09433465909092,64.88515451124736L186.32122670454544,112.87463547502244L186.39685738636362,54.30663225480488L186.6489596590909,56.53413378340858L186.77501079545453,80.00694583143506L187.68005795454545,112.67545482516289L187.90695,118.52076617309025L187.95737045454544,111.24826290352004L188.05821136363636,77.02977480207171L188.20947272727273,68.12389826774597L188.2851034090909,60.19785503830228L188.46157499999998,66.18656002623695L188.66325681818182,88.97418204801423L188.7388875,41.91355894293103L188.94056931818184,73.60550890650067L189.04141022727273,91.43537787028721L189.14225113636365,-41.522918752261575L189.72208636363635,123.0818365152393L189.8229272727273,84.95568238837379L189.99939886363634,103.5478318972247L190.1002397727273,60.63126501866749L190.37755227272729,59.91532544578824L190.680075,64.20571047919137L191.08343863636364,109.19397389888763L191.7136943181818,111.3277535523687L192.08932670454544,44.639993625027785L192.44226988636365,78.80796595982143L192.64395170454546,104.41612132532256L192.84563352272727,112.92298095141138L192.99689488636363,82.19729621069771L193.02210511363637,135.41136855099882L193.4506789772727,117.55729670609746L193.67757102272725,88.18183393989291L193.82883238636364,65.80565901313508L194.03051420454545,133.39503136702945L194.10614488636364,72.80656326668603L194.66076988636365,88.16909855604172L195.08934375,107.50308040635926L195.3918664772727,41.679107308387756L195.4674971590909,18.534152269363403L195.61875852272726,92.67211174964905L196.07254261363636,71.47799898045403L196.1229630681818,82.92743309906551L196.5767471590909,46.640963571412215L196.67758806818182,91.31131337795938L196.75321875,84.69102001190186L197.20448181818182,42.60724550485611L197.3053227272727,67.48630768060684L197.4817943181818,99.15470095191682L197.80952727272728,122.4913442411593L197.96078863636362,77.55903926917485L198.31373181818182,104.90212316598212L198.61625454545455,104.39834453804153L198.79272613636363,124.83353016206196L198.99440795454547,107.41297191381454L199.19608977272728,82.79808229207993L199.2213,45.05062309333256L199.775925,115.92064916661806L199.87676590909092,110.95513807450021L200.22970909090907,87.4944623197828L200.53223181818183,88.35168176037925L200.55744204545456,71.00157505273819L200.73391363636364,90.61693352886608L201.08685681818181,59.28677019902638L201.23811818181818,82.09387585094997L201.41458977272728,74.07576860700335L201.46501022727273,-4.608888694218221L201.69190227272728,120.44915385118551L201.74232272727272,112.61130315491131L201.76753295454546,87.1565677183015L202.24400624999998,60.097494184970856L202.31963693181817,76.00723651477269L202.54652897727271,101.73051522885049L202.87426193181818,137.0067730396986L203.22720511363636,113.54793788705553L203.47930738636364,115.41179522446222L203.88267102272727,99.09854092342513L204.1599835227273,97.28176682761737L204.61376761363638,27.988780668803628L204.86586988636364,128.27865872638566L204.89108011363638,91.88869724954878L205.04234147727274,114.3605307340622L205.21881306818182,116.91317264097077L205.31965397727274,75.90175890071052L205.34486420454544,132.02187063012803L205.37007443181818,96.57212712509292L205.92469943181817,91.74386051722935L205.94990965909093,82.06444882495063L206.05075056818183,74.07868493454797L206.10117102272727,65.69260799033302L206.32806306818182,105.66327335153306L206.42890397727274,72.9949791261128L207.15747954545455,78.73542702198029L207.1826897727273,97.32368432624L207.40958181818183,84.07018888848168L207.4852125,59.91876927443913L207.6616840909091,80.84788809503827L207.91378636363635,111.62115720340184L207.93899659090908,126.89393441166196L207.96420681818182,90.77592236229351L207.98941704545453,116.4837415260928L208.1154681818182,74.43961626291275L208.26672954545455,84.55029025248119L208.36757045454544,111.12197537081582L208.4179909090909,91.47969926680838L208.82135454545454,91.49407743981907L208.9726159090909,106.0807301912989L208.99782613636364,127.93122200667858L209.19950795454545,76.12488433292934L209.6785022727273,59.35936188697815L210.10707613636364,53.68011919089726L210.76254204545455,95.26311429057802L211.34237727272728,99.16006262387549L211.51884886363635,40.798745640686576L211.67011022727274,95.96580981782505L211.7457409090909,109.41923947845186L212.52473693181818,101.85403338074684L212.5499471590909,101.71637819920267L212.95331079545454,97.76901583160674L212.97852102272725,120.79018520031656L213.23062329545456,112.48308270743915L213.30625397727272,67.00906235831124L213.3566744318182,89.42333793640137L213.63398693181819,30.25674153225762L213.78524829545455,113.88969455020768L213.8608789772727,75.23278953347888L213.96171988636365,72.48716888257435L214.41550397727272,57.15372151136398L214.44071420454546,42.79498314857483L214.54155511363635,97.55362959418977L214.61718579545456,35.98645101274762L214.66760625,61.16658067703247L215.02054943181818,99.37688065000943L215.1213903409091,130.47210252285004L215.3987028409091,100.75016195859229L215.47433352272725,63.84076260668891L215.97853806818182,117.93901911377907L216.18021988636366,74.40712973049709L216.43232215909092,55.29587768656867L216.45753238636365,106.75005750570978L216.73484488636365,31.698251341070446L217.3121590909091,126.84491071956498L217.43821022727272,107.01026249783379L217.8667840909091,37.249944269657135L218.4466193181818,114.68764547365052L218.9760340909091,91.8999857732228L219.00124431818182,87.31166057927268L219.1020852272727,74.95408809185028L219.20292613636363,64.27187418937683L219.65671022727273,107.78079466734613L219.80797159090906,-9.090176377977661L219.83318181818183,2.496822493416911L220.89201136363636,45.95879914079393L221.09369318181817,94.53947696941239L221.295375,93.90868361081397L221.32058522727272,121.37361084350518L221.74915909090907,80.32990461587906L221.9508409090909,-3.6540363345827434L222.07689204545457,109.80166270903179L222.17773295454546,41.81276101725442L222.45252443181818,83.86472720759255L222.7550471590909,70.05397960117885L222.8306778409091,79.35703432559967L222.88109829545454,85.25394658531461L222.98193920454545,44.02064704043525L223.18362102272727,60.34462091752461L224.69623465909092,60.29995664528438L224.84749602272728,96.9535028891904L224.87270625,126.87517421160425L224.92312670454547,37.80311207260404L225.30128011363638,64.40830104691642L225.47775170454543,82.04939997196198L226.05758693181818,102.09765599880899L226.1584278409091,102.25786185264587L226.4357403409091,61.31421316521508L226.51137102272727,60.39906656742096L226.93994488636363,97.13151190536362L227.09120625,94.54221243943488L227.4164181818182,97.07427426746914L227.92062272727273,114.24429586529732L228.14751477272728,89.59508099300521L228.50045795454545,108.04812846013478L228.5508784090909,33.77626659188951L228.60129886363634,103.94215027775084L228.8281909090909,98.86197174872672L229.05508295454544,84.38746573243823L229.25676477272728,65.05634369168962L229.76096931818182,127.5276516335351L229.8113897727273,103.77787889753068L229.88702045454545,36.908304410321364L229.9374409090909,-14.28238483837675L230.0887022727273,81.89988355125699L230.391225,72.38830763953072L230.41643522727273,29.181716884885518L230.59290681818183,90.83204847999981L230.66853749999999,76.20739304167884L230.79458863636364,58.47377795832497L230.97106022727274,117.22722796031407L231.0214806818182,20.814871123858847L232.3072022727273,79.1035474368504L232.58199375,112.01335427590779L232.6576244318182,44.32622843129295L232.78367556818182,102.67689742786544L233.18703920454544,29.116253997598378L233.28788011363636,113.97246700951031L233.3130903409091,127.11957677773066L233.36351079545454,96.45776865312031L233.43914147727276,75.89887271608625L233.6156130681818,85.61557873657772L233.71645397727275,109.09224907841002L233.81729488636364,84.41604122093746L234.0441869318182,74.23350650923592L234.0693971590909,91.60672530106136L234.19544829545455,80.50538162674222L234.29628920454545,52.976364893572665L234.32149943181818,25.40712996891567L234.6996528409091,104.76534589699337L235.48116988636366,62.66335753032139L235.78369261363636,84.29370617866516L235.96016420454546,88.02267178467342L236.0862153409091,64.66211197205952L236.43915852272727,35.178168603352134L236.66605056818182,59.14466893672943L237.0442039772727,64.06289332253593L237.32151647727272,91.11123597621918L237.49798806818183,75.83989055667605L237.52067727272726,67.50376043149403L237.59630795454547,9.603618826184956L237.7475693181818,80.48682112353188L238.70555795454547,64.11119735240936L238.78118863636362,70.6892039690699L238.8316090909091,63.59341733796256L238.90723977272728,72.32416350500924L238.93245000000002,42.4317986369133L239.0332909090909,109.90411472746304L239.84001818181818,44.29738165651048L240.19296136363636,26.769454325948445L240.8736375,97.81019106081554L241.02489886363637,94.26982970748628L241.12573977272726,97.71433280621255L241.57952386363635,100.64958633695329L241.705575,72.20219771351132L242.08372840909092,90.2348079596247L242.15935909090908,82.84724539518356L242.23498977272726,110.68858046191079L242.7618835227273,41.94048410654068L243.03919602272728,101.87121107748577L243.36692897727272,96.36112668258804L243.39213920454546,92.89595684409142L243.64424147727271,47.60344208989824L243.71987215909093,103.77983065162385L243.82071306818182,55.71155609403337L244.24928693181818,76.7096871307918L244.29970738636362,93.7330219745636L244.37533806818183,104.68457794189453L244.90475284090908,116.81968814134598L244.95517329545453,83.18951072011676L245.08122443181819,113.96116341437612L245.35853693181818,89.39878275990486L245.56021875,107.54587958540236L245.6610596590909,49.5995288831847L246.08963352272727,86.75222304889134L246.24089488636363,107.10224361930574L246.49299715909092,71.23105310542243L246.54341761363636,100.27688796605383L246.69467897727273,99.08057574289185L246.8207301136364,68.20542733158383L246.94678125,86.39453962019512L247.02241193181817,75.53036044325147L247.40056534090908,58.02134025948388L247.42577556818182,90.04273727110454L248.10393068181818,96.33821052738598L248.3056125,42.51124030351639L248.55771477272728,72.04659242289407L248.63334545454543,53.41903628621782L248.83502727272727,104.97026500531605L249.36444204545455,72.9957025562014L249.5157034090909,57.85860616820199L249.7930159090909,24.901000193187173L249.81822613636365,111.303096643516L250.6249534090909,-26.592452083315184L250.65016363636363,86.99021647657666L250.801425,88.68398108226913L252.1123568181818,96.68064917411124L252.16277727272728,72.93152074302945L252.33924886363636,83.77033465249198L252.41487954545454,105.72512662410736L252.59135113636364,70.30864206382206L253.26950625,69.60299629824502L253.79892102272726,68.57533371448517L254.05102329545454,69.49364531891686L254.4543869318182,117.00480335099357L254.50480738636364,52.56267591885158L254.5552278409091,94.18128111107009L254.6812789772727,77.30791859967368L255.2863244318182,47.436849704810555" style="fill: none;" fill="none"></path></g></g></g></g></g></g><g transform="translate(52, 177)" clip-path="url(#clip_1)"><clipPath id="clip_1"><rect width="277" height="23"></rect></clipPath><g><g><line x1="0" y1="0" x2="0" y2="5" style="visibility: inherit;" fill="rgb(0, 0, 0)" stroke="rgb(204, 204, 204)" stroke-width="1px"></line><line x1="25.210227272727273" y1="0" x2="25.210227272727273" y2="5" style="visibility: inherit;" fill="rgb(0, 0, 0)" stroke="rgb(204, 204, 204)" stroke-width="1px"></line><line x1="50.42045454545455" y1="0" x2="50.42045454545455" y2="5" style="visibility: inherit;" fill="rgb(0, 0, 0)" stroke="rgb(204, 204, 204)" stroke-width="1px"></line><line x1="75.63068181818181" y1="0" x2="75.63068181818181" y2="5" style="visibility: inherit;" fill="rgb(0, 0, 0)" stroke="rgb(204, 204, 204)" stroke-width="1px"></line><line x1="100.8409090909091" y1="0" x2="100.8409090909091" y2="5" style="visibility: inherit;" fill="rgb(0, 0, 0)" stroke="rgb(204, 204, 204)" stroke-width="1px"></line><line x1="126.05113636363636" y1="0" x2="126.05113636363636" y2="5" style="visibility: inherit;" fill="rgb(0, 0, 0)" stroke="rgb(204, 204, 204)" stroke-width="1px"></line><line x1="151.26136363636363" y1="0" x2="151.26136363636363" y2="5" style="visibility: inherit;" fill="rgb(0, 0, 0)" stroke="rgb(204, 204, 204)" stroke-width="1px"></line><line x1="176.4715909090909" y1="0" x2="176.4715909090909" y2="5" style="visibility: inherit;" fill="rgb(0, 0, 0)" stroke="rgb(204, 204, 204)" stroke-width="1px"></line><line x1="201.6818181818182" y1="0" x2="201.6818181818182" y2="5" style="visibility: inherit;" fill="rgb(0, 0, 0)" stroke="rgb(204, 204, 204)" stroke-width="1px"></line><line x1="226.89204545454547" y1="0" x2="226.89204545454547" y2="5" style="visibility: inherit;" fill="rgb(0, 0, 0)" stroke="rgb(204, 204, 204)" stroke-width="1px"></line><line x1="252.10227272727272" y1="0" x2="252.10227272727272" y2="5" style="visibility: inherit;" fill="rgb(0, 0, 0)" stroke="rgb(204, 204, 204)" stroke-width="1px"></line><line x1="277.3125" y1="0" x2="277.3125" y2="5" style="visibility: inherit;" fill="rgb(0, 0, 0)" stroke="rgb(204, 204, 204)" stroke-width="1px"></line></g><g transform="translate(0, 8)"><text x="0" y="0" dx="0em" dy="0.95em" style="text-anchor: middle; visibility: hidden; font-family: Roboto, sans-serif; font-size: 12px; font-weight: 200;" fill="rgb(50, 49, 63)" stroke="none" stroke-width="1px">-10k</text><text x="25.210227272727273" y="0" dx="0em" dy="0.95em" style="text-anchor: middle; visibility: inherit; font-family: Roboto, sans-serif; font-size: 12px; font-weight: 200;" fill="rgb(50, 49, 63)" stroke="none" stroke-width="1px">0</text><text x="50.42045454545455" y="0" dx="0em" dy="0.95em" style="text-anchor: middle; visibility: hidden; font-family: Roboto, sans-serif; font-size: 12px; font-weight: 200;" fill="rgb(50, 49, 63)" stroke="none" stroke-width="1px">10k</text><text x="75.63068181818181" y="0" dx="0em" dy="0.95em" style="text-anchor: middle; visibility: inherit; font-family: Roboto, sans-serif; font-size: 12px; font-weight: 200;" fill="rgb(50, 49, 63)" stroke="none" stroke-width="1px">20k</text><text x="100.8409090909091" y="0" dx="0em" dy="0.95em" style="text-anchor: middle; visibility: hidden; font-family: Roboto, sans-serif; font-size: 12px; font-weight: 200;" fill="rgb(50, 49, 63)" stroke="none" stroke-width="1px">30k</text><text x="126.05113636363636" y="0" dx="0em" dy="0.95em" style="text-anchor: middle; visibility: inherit; font-family: Roboto, sans-serif; font-size: 12px; font-weight: 200;" fill="rgb(50, 49, 63)" stroke="none" stroke-width="1px">40k</text><text x="151.26136363636363" y="0" dx="0em" dy="0.95em" style="text-anchor: middle; visibility: hidden; font-family: Roboto, sans-serif; font-size: 12px; font-weight: 200;" fill="rgb(50, 49, 63)" stroke="none" stroke-width="1px">50k</text><text x="176.4715909090909" y="0" dx="0em" dy="0.95em" style="text-anchor: middle; visibility: inherit; font-family: Roboto, sans-serif; font-size: 12px; font-weight: 200;" fill="rgb(50, 49, 63)" stroke="none" stroke-width="1px">60k</text><text x="201.6818181818182" y="0" dx="0em" dy="0.95em" style="text-anchor: middle; visibility: hidden; font-family: Roboto, sans-serif; font-size: 12px; font-weight: 200;" fill="rgb(50, 49, 63)" stroke="none" stroke-width="1px">70k</text><text x="226.89204545454547" y="0" dx="0em" dy="0.95em" style="text-anchor: middle; visibility: inherit; font-family: Roboto, sans-serif; font-size: 12px; font-weight: 200;" fill="rgb(50, 49, 63)" stroke="none" stroke-width="1px">80k</text><text x="252.10227272727272" y="0" dx="0em" dy="0.95em" style="text-anchor: middle; visibility: hidden; font-family: Roboto, sans-serif; font-size: 12px; font-weight: 200;" fill="rgb(50, 49, 63)" stroke="none" stroke-width="1px">90k</text><text x="277.3125" y="0" dx="0em" dy="0.95em" style="text-anchor: middle; visibility: hidden; font-family: Roboto, sans-serif; font-size: 12px; font-weight: 200;" fill="rgb(50, 49, 63)" stroke="none" stroke-width="1px">100k</text></g><line x1="0" y1="0" x2="277.3125" y2="0" fill="rgb(0, 0, 0)" stroke="rgb(204, 204, 204)" stroke-width="1px"></line></g></g></g></g></svg>